# xmcd
#
# Track frame offsets: 
#        150
#        19475
#        39670
#        54820
#        78804
#        97900
#        119682
#        136455
#        159537
#        178909
#        198772
#
# Disc length: 2904 seconds
#
# Revision: 0
# Processed by: cddbd v1.4PL0 Copyright (c) Steve Scherf et al.
# Submitted via: ExactAudioCopy v0.90b4
#
DISCID=8c0b560b
DTITLE=True Blue - Live In Concert
DYEAR=1900
DGENRE=Blues
TTITLE0=Further On Up The Road
TTITLE1=Given It Up For Your Love
TTITLE2=Standing On Shaky Ground
TTITLE3=Undercover Agent For The Blues
TTITLE4=Shotgun Rider
TTITLE5=Don't Change On Me
TTITLE6=Sweet Louise
TTITLE7=Take The Pain Away
TTITLE8=Hard To Handle
TTITLE9=Old Weakness
TTITLE10=The Rose
EXTD=
EXTT0=
EXTT1=
EXTT2=
EXTT3=
EXTT4=
EXTT5=
EXTT6=
EXTT7=
EXTT8=
EXTT9=
EXTT10=
PLAYORDER=
